# xmcd
#
# Track frame offsets:
#	150
#	12943
#	29395
#	39690
#	54647
#	68248
#	85854
#	101137
#	111930
#	118225
#	125964
#	136332
#
# Disc length: 2020 seconds
#
# Revision: 0
# Processed by: cddbd v1.5.2PL0 Copyright (c) Steve Scherf et al.
# Submitted via: EasyCDDAExtractor 16.0.6.1
#
DISCID=b107e20c
DTITLE=Συλλογικός δίσκος - Νησιώτικα-Victory 2
DYEAR=2003
DGENRE=Παραδοσιακή
TTITLE0=Κάβουρας Στάθης - Μες του Αιγαίου τα νερά [παραδοσιακό]
TTITLE1=Μάγκελ Έλενα - Μάτια σαν και τα δικά σου [παραδοσιακό]
TTITLE2=Κουκουλάρη Νίκη - Τα παλιά μου βάσανα [παραδοσιακό]
TTITLE3=Κατράκος Βασίλειος - Σέριφος ποτέ δεν σε ξεχνώ [παραδοσιακό]
TTITLE4=Μάγκελ Έλενα - Μιά κόρη στην ακρογιαλιά [παραδοσιακό]
TTITLE5=Σκαφίδας Κώστας - Το πονεμένο στήθος μου [παραδοσιακό]
TTITLE6=Μάγκελ Έλενα - Η Γερακίνα [παραδοσιακό]
TTITLE7=Άνευ ερμηνευτού - Τσαμπούνα [Τζιωτάκης Φώτης]
TTITLE8=Μάγκελ Έλενα - Σαμιώτισσα, Σαμιώτισσα [παραδοσιακό]
TTITLE9=Μάγκελ Έλενα - Ωραία Αιγιώτισσα [παραδοσιακό]
TTITLE10=Σπανού Θάλεια - Κόρη στο γιαλό [παραδοσιακό]
TTITLE11=Κονδύλης Μάνος - Στον κατηφένιο σου οντά [παραδοσιακό]
EXTD=
EXTT0=
EXTT1=
EXTT2=
EXTT3=
EXTT4=
EXTT5=
EXTT6=
EXTT7=
EXTT8=
EXTT9=
EXTT10=
EXTT11=
PLAYORDER=
